<svg version="1.1" xmlns="http://www.w3.org/2000/svg" xmlns:xlink="http://www.w3.org/1999/xlink" role="img" width="81" height="90" viewbox="0 0 81 90"><title>sis</title><desc>Generated by logo.svg, https://github.com/bubkoo/logo.svg</desc><path fill="#2b68a7" d="M13.16 70.99Q8.36 70.99 5.48 69.07Q2.60 67.15 2.60 63.76Q2.60 62.03 3.27 61.14Q3.94 60.24 4.90 59.89Q5.86 59.54 6.63 59.54Q6.63 61.78 7.34 63.70Q8.04 65.62 9.64 66.77Q11.24 67.92 13.93 67.92Q17.13 67.92 18.98 66.45Q20.84 64.98 20.84 61.97Q20.84 59.73 19.37 58.13Q17.90 56.53 14.38 54.93Q10.86 53.26 8.74 51.06Q6.63 48.85 6.63 45.01Q6.63 40.91 9.96 38.19Q13.29 35.47 18.98 35.47Q22.50 35.47 24.68 36.37Q26.86 37.26 27.91 38.67Q28.97 40.08 28.97 41.55Q28.97 43.60 27.66 44.56Q26.34 45.52 24.17 45.52Q24.17 43.86 23.62 42.19Q23.08 40.53 21.83 39.47Q20.58 38.42 18.41 38.42Q15.53 38.42 13.86 39.98Q12.20 41.55 12.20 43.92Q12.20 46.10 13.77 47.54Q15.34 48.98 18.73 50.51Q22.25 52.11 24.33 54.42Q26.41 56.72 26.41 60.43Q26.41 65.10 22.86 68.05Q19.30 70.99 13.16 70.99ZM45.03 29.65Q43.43 29.65 42.44 28.78Q41.45 27.92 41.45 26.13Q41.45 24.14 42.50 22.90Q43.56 21.65 45.29 21.65Q46.82 21.65 47.85 22.51Q48.87 23.38 48.87 25.17Q48.87 27.66 47.66 28.66Q46.44 29.65 45.03 29.65M40.62 70.99Q38.06 70.99 36.68 69.20Q35.30 67.41 35.30 64.91Q35.30 63.57 35.56 61.71Q35.82 59.86 36.14 58Q36.46 56.14 36.71 54.86L39.21 43.09Q39.40 42.13 39.40 41.42Q39.40 39.70 38.34 39.22Q37.29 38.74 35.50 38.74L34.66 38.74L35.24 36.05L46.70 36.05L42.34 56.59Q42.22 57.30 41.96 58.64Q41.70 59.98 41.54 61.39Q41.38 62.80 41.38 63.70Q41.38 66.96 43.50 66.96Q44.52 66.96 45.70 66.48Q46.89 66 48.10 65.30L49.26 67.15Q47.85 68.43 45.42 69.71Q42.98 70.99 40.62 70.99ZM62.31 70.99Q57.51 70.99 54.63 69.07Q51.75 67.15 51.75 63.76Q51.75 62.03 52.42 61.14Q53.10 60.24 54.06 59.89Q55.02 59.54 55.78 59.54Q55.78 61.78 56.49 63.70Q57.19 65.62 58.79 66.77Q60.39 67.92 63.08 67.92Q66.28 67.92 68.14 66.45Q69.99 64.98 69.99 61.97Q69.99 59.73 68.52 58.13Q67.05 56.53 63.53 54.93Q60.01 53.26 57.90 51.06Q55.78 48.85 55.78 45.01Q55.78 40.91 59.11 38.19Q62.44 35.47 68.14 35.47Q71.66 35.47 73.83 36.37Q76.01 37.26 77.06 38.67Q78.12 40.08 78.12 41.55Q78.12 43.60 76.81 44.56Q75.50 45.52 73.32 45.52Q73.32 43.86 72.78 42.19Q72.23 40.53 70.98 39.47Q69.74 38.42 67.56 38.42Q64.68 38.42 63.02 39.98Q61.35 41.55 61.35 43.92Q61.35 46.10 62.92 47.54Q64.49 48.98 67.88 50.51Q71.40 52.11 73.48 54.42Q75.56 56.72 75.56 60.43Q75.56 65.10 72.01 68.05Q68.46 70.99 62.31 70.99Z"></path></svg>